<svg id="Layer_1" data-name="Layer 1" xmlns="http://www.w3.org/2000/svg" viewBox="0 0 31 31"><defs><style>.cls-1{fill:none;stroke:#000;stroke-linecap:round;stroke-miterlimit:10;stroke-width:0.75px;}</style></defs><title>bin</title><path class="cls-1" d="M23.41,30.5H7.59a1.34,1.34,0,0,1-1.34-1.34V9h18.5V29.16A1.34,1.34,0,0,1,23.41,30.5ZM5,4.85V9H26V4.85a1.34,1.34,0,0,0-1.34-1.34H6.34A1.34,1.34,0,0,0,5,4.85ZM12.13,1.7V3.51h6.75V1.7A1.34,1.34,0,0,0,17.53.36H13.47A1.34,1.34,0,0,0,12.13,1.7ZM15.5,13V26m-5-13V26m10-13V26"/></svg>