<svg id="Layer_1" data-name="Layer 1" xmlns="http://www.w3.org/2000/svg" viewBox="0 0 31 31"><defs><style>.cls-1{fill:none;stroke:#000;stroke-linecap:round;stroke-linejoin:round;stroke-width:0.75px;}</style></defs><title>chat</title><path class="cls-1" d="M13.8,23.68h9.84l4,4.87V23.68h1.28a1.26,1.26,0,0,0,1.26-1.26V14a1.26,1.26,0,0,0-1.26-1.26H13.8A1.26,1.26,0,0,0,12.53,14v8.41A1.26,1.26,0,0,0,13.8,23.68Z"/><line class="cls-1" x1="5.5" y1="8.25" x2="18.46" y2="8.25"/><line class="cls-1" x1="5.5" y1="11.78" x2="10.25" y2="11.78"/><path class="cls-1" d="M10.53,18H9.19L3.94,24.35V18H2.27A1.65,1.65,0,0,1,.63,16.36V5.4A1.65,1.65,0,0,1,2.27,3.75H22A1.65,1.65,0,0,1,23.66,5.4v5.34"/><circle cx="17.96" cy="18.21" r="0.5"/><circle cx="20.96" cy="18.21" r="0.5"/><circle cx="23.96" cy="18.21" r="0.5"/></svg>