<svg id="Layer_1" data-name="Layer 1" xmlns="http://www.w3.org/2000/svg" viewBox="0 0 31 31"><defs><style>.cls-1{fill:none;stroke:#000;stroke-linecap:round;stroke-miterlimit:10;stroke-width:0.75px;}</style></defs><title>key</title><path class="cls-1" d="M18.65,20.76l-8.41-8.41a3.82,3.82,0,0,1,0-5.39l5.38-5.38a3.82,3.82,0,0,1,5.39,0L29.42,10a3.82,3.82,0,0,1,0,5.39L24,20.76A3.82,3.82,0,0,1,18.65,20.76Zm5.78-9.59.24-.24a2,2,0,0,0,0-2.85L22.93,6.33a2,2,0,0,0-2.85,0l-.24.24a2,2,0,0,0,0,2.85l1.74,1.74A2,2,0,0,0,24.43,11.17ZM12.15,14.25.38,26v4.6H3.44V29.09H6.51V27.55L8,26H9.58l1.53-1.53V23l.77-.77h1.53l3.34-3.33Zm-3.34,6.4L.38,29.09"/></svg>