<svg id="Layer_1" data-name="Layer 1" xmlns="http://www.w3.org/2000/svg" viewBox="0 0 31 31"><defs><style>.cls-1,.cls-2{fill:none;stroke:#000;stroke-miterlimit:10;stroke-width:0.75px;}.cls-2{stroke-linecap:round;}</style></defs><title>phone</title><path class="cls-1" d="M24.35,30.46a14.25,14.25,0,0,1-4.64-1.1,34.81,34.81,0,0,1-10.58-7.5,34.81,34.81,0,0,1-7.5-10.58C.15,7.73.13,5.17,1.7,3.4L3.89,1.21a2.31,2.31,0,0,1,3.64.48l3.65,6.78a2.31,2.31,0,0,1-.37,2.79L9.14,12.93a1.07,1.07,0,0,0-.08,1.42c.92,1.15,2.54,2.88,3.62,4s2.69,2.58,3.84,3.5a1.09,1.09,0,0,0,1.43-.08l1.67-1.67a2.36,2.36,0,0,1,2.79-.37l6.9,3.77a2.31,2.31,0,0,1,.48,3.64s-1.6,1.69-2.19,2.19A5.56,5.56,0,0,1,24.35,30.46Z"/><line class="cls-2" x1="4.06" y1="1.06" x2="10.05" y2="12.03"/><line class="cls-2" x1="19.08" y1="20.82" x2="29.78" y2="26.69"/></svg>