<svg id="Layer_1" data-name="Layer 1" xmlns="http://www.w3.org/2000/svg" viewBox="0 0 31 31"><defs><style>.cls-1{stroke:#000;stroke-linecap:round;stroke-linejoin:round;stroke-width:0.75px;}</style></defs><title>star_full</title><path class="cls-1" d="M15.91,1.4l4.06,9a.45.45,0,0,0,.36.26l9.85,1.07a.45.45,0,0,1,.25.78L23.09,19.2a.45.45,0,0,0-.14.42l2,9.69a.45.45,0,0,1-.66.48l-8.59-4.92a.45.45,0,0,0-.45,0L6.68,29.8A.45.45,0,0,1,6,29.32l2-9.69a.45.45,0,0,0-.14-.42L.57,12.55a.45.45,0,0,1,.25-.78l9.85-1.07a.45.45,0,0,0,.36-.26l4.06-9A.45.45,0,0,1,15.91,1.4Z"/></svg>